<svg xmlns="http://www.w3.org/2000/svg" width="960" height="520" viewBox="0 0 960 520" role="img" aria-labelledby="title desc">
  <title id="title">Архитектура проекта Eltech</title>
  <desc id="desc">Схема слоев приложения: пользовательский интерфейс, доменная логика, SDK и сервисы университета.</desc>
  <rect width="960" height="520" rx="28" fill="#ffffff"/>
  <rect x="70" y="64" width="820" height="82" rx="22" fill="#eaf2ff" stroke="#b8d3ff"/>
  <rect x="70" y="184" width="820" height="82" rx="22" fill="#fff1f2" stroke="#fecdd3"/>
  <rect x="70" y="304" width="820" height="82" rx="22" fill="#effdf5" stroke="#bbf7d0"/>
  <rect x="70" y="424" width="250" height="52" rx="18" fill="#f8fafc" stroke="#d0d5dd"/>
  <rect x="356" y="424" width="250" height="52" rx="18" fill="#f8fafc" stroke="#d0d5dd"/>
  <rect x="642" y="424" width="250" height="52" rx="18" fill="#f8fafc" stroke="#d0d5dd"/>
  <g font-family="Inter, Arial, sans-serif" fill="#101828">
    <text x="94" y="113" font-size="24" font-weight="800">UI: экраны расписания, LMS, авторизации и физкультуры</text>
    <text x="94" y="233" font-size="24" font-weight="800">Domain: бизнес-сущности и сценарии использования</text>
    <text x="94" y="353" font-size="24" font-weight="800">SDK_Eltech и Cache: работа с API и локальными данными</text>
    <text x="112" y="458" font-size="17" font-weight="700">Личный кабинет</text>
    <text x="425" y="458" font-size="17" font-weight="700">Moodle / LMS</text>
    <text x="722" y="458" font-size="17" font-weight="700">Расписание</text>
  </g>
  <g stroke="#667085" stroke-width="3" stroke-linecap="round">
    <path d="M480 146v38"/>
    <path d="M480 266v38"/>
    <path d="M480 386v36"/>
    <path d="M480 386c-210 0-285 16-285 38"/>
    <path d="M480 386c210 0 287 16 287 38"/>
  </g>
</svg>
